<?xml version="1.0" encoding="utf-8"?>
<!DOCTYPE svg PUBLIC "-//W3C//DTD SVG 1.1//EN" "http://www.w3.org/Graphics/SVG/1.1/DTD/svg11.dtd">
<svg version="1.1" xmlns="http://www.w3.org/2000/svg" xmlns:xlink="http://www.w3.org/1999/xlink" x="0px" y="0px"
    width="400px" height="400px" viewBox="0 0 400 400" enable-background="new 0 0 400 400" xml:space="preserve">
    <filter filterUnits="objectBoundingBox" id="filter-mask">
        <feGaussianBlur stdDeviation="5" result="blur" in="SourceAlpha"></feGaussianBlur>
        <feOffset dy="0" dx="0" result="offsetBlurredAlpha" in="blur"></feOffset>
        <feMerge>
            <feMergeNode in="offsetBlurredAlpha"></feMergeNode>
            <feMergeNode in="SourceGraphic"></feMergeNode>
        </feMerge>
    </filter>
    <g filter="url(#filter-mask)">
        <path fill="#110F0F"
            d="M 387 375 C 387 382 382 387 375 387 H 25 C 18 387 13 382 13 375 V 25 C 13 18 18 13 25 13 H 375 C 382 13 387 18 387 25 V 375 Z" />
        <path fill="none" stroke="#FFFFFF" stroke-width="0.5" stroke-miterlimit="10"
            d="M 387 375 C 387 382 382 387 375 387 H 25 C 18 387 13 382 13 375 V 25 C 13 18 18 13 25 13 H 375 C 382 13 387 18 387 25 V 375 Z" />
    </g>
</svg>