<?xml version="1.0" encoding="utf-8"?>
<!DOCTYPE svg PUBLIC "-//W3C//DTD SVG 1.1//EN" "http://www.w3.org/Graphics/SVG/1.1/DTD/svg11.dtd">
<svg version="1.1" xmlns="http://www.w3.org/2000/svg" xmlns:xlink="http://www.w3.org/1999/xlink" x="0px" y="0px"
    width="400px" height="400px" viewBox="0 0 400 400" enable-background="new 0 0 400 400" xml:space="preserve">
    <style>
        .ring .frame {
            fill: #232323;
            stroke-width: 3;
        }

        .ring .border {
            fill: none;
            stroke: #353535;
            stroke-width: 1.3;
            stroke-miterlimit: 10;
        }
    </style>
    <filter filterUnits="objectBoundingBox" id="filter-shadow">
        <feGaussianBlur stdDeviation="5" result="blur" in="SourceAlpha"></feGaussianBlur>
        <feOffset dy="0" dx="0" result="offsetBlurredAlpha" in="blur"></feOffset>
        <feMerge>
            <feMergeNode in="offsetBlurredAlpha"></feMergeNode>
            <feMergeNode in="SourceGraphic"></feMergeNode>
        </feMerge>
    </filter>
    <g class="ring" filter="url(#filter-shadow)">
        <path class="frame"
            d=" M 50 200 A 150 150 0 1 1 350 200 A 150 150 0 1 1 50 200 Z M 34 200 A 166 166 0 1 0 366 200 A 166 166 0 1 0 34 200 Z" />
        <path class="border"
            d=" M 50 200 A 150 150 0 1 1 350 200 A 150 150 0 1 1 50 200 Z M 34 200 A 166 166 0 1 0 366 200 A 166 166 0 1 0 34 200 Z" />
    </g>
</svg>