<svg xmlns="http://www.w3.org/2000/svg" width="540" height="540">
    <style>
        .airplane {
            fill: white;
            fill-opacity: 1;
            stroke: none;
        }
    </style>
    <g class="airplane">
        <path
            d="M 270 249 C 257.7 249 247.6 258.7 247 270.8 L 125.1 270.6 C 120.6 270.6 119.7 276.9 124.6 277.7 L 251 284.9 C 255.1 291 262.1 295.1 270 295.1 C 278 295.1 285 291.1 289.1 285 L 416 277.7 C 420.9 276.9 420 270.6 415.5 270.6 L 293.1 270.9 C 292.5 258.7 282.4 249 270 249 Z" />
        <path
            d="M 216.66 253.4 L 323.21 253.4 C 327.59 253.35 329.04 246.7 322.96 246.23 L 278.51 244.1 C 274.82 243.43 274.48 241.82 274.22 239.73 L 273.71 214.51 C 273.71 210.62 266.28 210.55 266.28 214.51 L 265.78 239.73 C 265.51 241.82 265.17 243.43 261.49 244.1 L 216.91 246.23 C 210.83 246.7 212.28 253.35 216.66 253.4 Z" />
    </g>
</svg>